# xmcd
#
# Track frame offsets:
#	150
#	13357
#	29450
#	46092
#	58770
#	71082
#	84205
#	96187
#	107202
#	121267
#	137335
#	150652
#	165742
#	177742
#	190505
#	203250
#	215670
#	229230
#
# Disc length: 3338 seconds
#
# Revision: 2
# Processed by: cddbd v1.5.2PL0 Copyright (c) Steve Scherf et al.
# Submitted via: audiograbber 1.83.01
#
DISCID=f30d0812
DTITLE=Various Artist - That Ole Devil Called Love [Disc 2]
DYEAR=2001
DGENRE=Easy Listening
TTITLE0=Billie Holiday - That Ole Devil Called Love
TTITLE1=Ella Fitzgerald - Every Time We Say Goodbye
TTITLE2=Astrud Gilberto - The Girl From Ipanema
TTITLE3=Dinah Washington - Mad About The Boy
TTITLE4=Patsy Cline - Crazy
TTITLE5=Nina Simone - Feeling Good
TTITLE6=The Platters - Smoke Gets In Your Eyes
TTITLE7=Marty Wilde - Sea Of Love
TTITLE8=Loius Armstrong and Ella Fitzgerald - Dream A Little Dream Of Me
TTITLE9=Dusty Springfield - The Look Of Love
TTITLE10=The Temptations - My Girl
TTITLE11=The Stylistics - I'm Stone In Love With You
TTITLE12=Doris Day - Move Over Darling
TTITLE13=Bobby Vinton - Blue Velvet
TTITLE14=Buddy Holly - Raining In My Heart
TTITLE15=Dinah Washington and Brook Benton - Baby (You've Got What It Takes)
TTITLE16=Marilyn Monroe - I Want To Be Loved By You
TTITLE17=Shirley Bassey - Makin' Whoopee
EXTD=YEAR: 2001
EXTT0=
EXTT1=
EXTT2=
EXTT3=
EXTT4=
EXTT5=
EXTT6=
EXTT7=
EXTT8=
EXTT9=
EXTT10=
EXTT11=
EXTT12=
EXTT13=
EXTT14=
EXTT15=
EXTT16=
EXTT17=
PLAYORDER=
